<svg width="160.74" height="43.649" version="1.1" viewBox="0 0 42.528 11.548" xmlns="http://www.w3.org/2000/svg">
 <g transform="matrix(.094938 0 0 .094938 -18.363 -8.8581)" fill="none" stroke-width="3">
  <path d="m222.42 149.66-27.502 15.879v31.757l27.502 15.879 27.502-15.879v-14.56h-7.488l-11.868-20.557 3.3841-5.8612z" stroke="#22a3ae"/>
  <path d="m285.58 149.7-11.056 6.3833 3.5214 6.0985-11.869 20.557h-8.0986v14.596l27.502 15.879 27.502-15.879v-31.757z" stroke="#ae2248"/>
  <path d="m254.07 95.036-27.502 15.879v31.757l11.445 6.6084 4.4198-7.6557h23.737l4.3046 7.4551 11.098-6.4078v-31.757z" stroke="#adae22"/>
 </g>
 <g fill="#656e74" stroke-width=".65476" aria-label="HIVE">
  <path d="m20.939 0.91669v4.522h-6.0098v-4.522h-0.4522v9.6712h0.4522v-4.7408h6.0098v4.7408h0.43761v-9.6712z"/>
  <path d="m24.104 10.588h0.4522v-9.6712h-0.4522z"/>
  <path d="m33.98 0.91669-3.6322 9.2773-3.5446-9.2773h-0.46678l3.7197 9.7149h0.58348l3.8218-9.7149z"/>
  <path d="m42.528 1.3397v-0.42302h-6.287v9.6712h6.287v-0.40844h-5.8348v-4.3615h4.9158v-0.37926h-4.9158v-4.0989z"/>
 </g>
</svg>
