<svg width="67.733mm" height="67.733mm" version="1.1" viewBox="0 0 67.733 67.733" xmlns="http://www.w3.org/2000/svg">
 <g fill="#999ea3" stroke-width=".073094">
  <path d="m43.064 33.289c0.01316 0 0.02653-9.09e-4 0.03991-0.0027 0.16-0.02186 0.27198-0.16929 0.25013-0.32928-0.06206-0.45363-0.15796-0.9071-0.28514-1.3477-0.04481-0.1551-0.20672-0.2445-0.36204-0.19984-0.15517 0.04481-0.24457 0.20685-0.19984 0.36204 0.11936 0.41357 0.20942 0.83905 0.2676 1.2648 0.0201 0.14656 0.14553 0.25276 0.28938 0.25276z"/>
  <path d="m43.138 33.712c-0.16139 0.0042-0.28887 0.13851-0.28463 0.29998 0.06352 2.4181-0.8672 4.7948-2.5535 6.5213-0.11286 0.11549-0.11066 0.30064 0.0048 0.41342 0.05687 0.05555 0.13062 0.08325 0.20423 0.08325 0.07602 0 0.15189-0.02946 0.20919-0.08808 1.796-1.8387 2.7874-4.3701 2.7197-6.9452-0.0041-0.16147-0.13946-0.28894-0.29983-0.28463z"/>
  <path d="m39.653 41.133c-0.51269 0.43016-1.0775 0.80484-1.6787 1.1136-1.5412 0.79133-3.2627 1.1197-4.9786 0.9503-1.6718-0.16527-3.2589-0.7908-4.5899-1.8091-0.12821-0.09817-0.31174-0.07361-0.40984 0.0546-0.09809 0.12821-0.07368 0.31174 0.0546 0.40984 1.4175 1.0844 3.1077 1.7506 4.8877 1.9265 0.31321 0.03099 0.62634 0.04634 0.93889 0.04634 1.5117 0 3.0042-0.35999 4.3643-1.0583 0.64009-0.3287 1.2415-0.72765 1.7876-1.1859 0.12367-0.1038 0.13983-0.28821 0.03604-0.41189-0.1038-0.12367-0.28828-0.13983-0.41196-0.03603z"/>
  <path d="m26.905 39.932c-0.10189-0.12529-0.28602-0.14421-0.4113-0.04232-0.12529 0.10189-0.14422 0.28609-0.04232 0.4113 0.23704 0.29143 0.49404 0.5716 0.76391 0.83276 0.05679 0.05489 0.13011 0.08223 0.20327 0.08223 0.07646 0 0.15276-0.02982 0.21015-0.08903 0.11227-0.11608 0.10928-0.30115-0.0068-0.41342-0.2532-0.24516-0.49442-0.50808-0.71691-0.78153z"/>
  <path d="m23.911 32.878c0.01652 0.0029 0.03289 0.0042 0.04912 0.0042 0.14005 0 0.26379-0.10094 0.28792-0.24363 0.022-0.13019 0.04685-0.26109 0.0739-0.38915 0.03333-0.15796-0.06776-0.31306-0.22579-0.34639-0.15788-0.03333-0.31306 0.06783-0.34639 0.22579-0.02865 0.13567-0.05489 0.2744-0.07821 0.41225-0.02697 0.1592 0.08026 0.31006 0.23946 0.33697z"/>
  <path d="m24.183 31.565c0.02873 0.0088 0.05775 0.01309 0.08633 0.01309 0.12484 0 0.24056-0.0807 0.27929-0.2062 0.08888-0.288 0.1921-0.57474 0.30671-0.85228 0.51773-1.2534 1.3156-2.4125 2.3072-3.3521 0.11725-0.1111 0.12222-0.2961 0.01119-0.41335-0.1111-0.11725-0.29618-0.12222-0.41335-0.01119-1.0509 0.99577-1.8966 2.2245-2.4455 3.5533-0.12156 0.29414-0.23091 0.59799-0.32506 0.90308-0.04758 0.1543 0.03889 0.31803 0.19319 0.36562z"/>
  <path d="m27.986 26.399c0.05921 0 0.11892-0.01798 0.17068-0.05519 1.1337-0.81684 2.4589-1.3921 3.8324-1.6637 1.5192-0.30027 3.1144-0.22769 4.6134 0.21007 0.92515 0.27023 1.8036 0.6748 2.6111 1.2026 0.13522 0.08837 0.31635 0.05036 0.40472-0.08479 0.08838-0.13515 0.05036-0.31635-0.08479-0.40472-0.85571-0.55932-1.7867-0.9881-2.7671-1.2745-1.5887-0.46401-3.2798-0.5409-4.8907-0.22236-1.4552 0.2877-2.8595 0.89731-4.0608 1.7628-0.13098 0.09444-0.16066 0.27717-0.0663 0.40816 0.05709 0.07938 0.14662 0.12156 0.23749 0.12156z"/>
  <path d="m50.275 25.852c-0.06162-0.14144-0.22249-0.21073-0.36752-0.15817l-5.1396 1.8596c-0.63161 0.22842-1.2927 0.34427-1.9646 0.34427-1.2478 0-2.444-0.39186-3.4597-1.1332-1.5791-1.152-3.5253-1.7865-5.4802-1.7865-1.4593 0-2.9213 0.35473-4.2283 1.0257-3.1373 1.6108-5.0682 4.8039-5.0393 8.333 0.01586 1.9538-0.92611 3.7736-2.5198 4.8679l-4.5063 3.093c-0.12718 0.08727-0.16468 0.25839-0.08559 0.39083 0.07902 0.13252 0.24742 0.18076 0.38462 0.1103l8.4808-4.3544c1.5213 2.7346 4.3795 4.4212 7.5286 4.4212 1.3742 0 2.695-0.32044 3.9258-0.95234 2.0457-1.0504 3.56-2.8347 4.2639-5.0243 0.67401-2.0966 0.52775-4.3242-0.40801-6.3056l8.4808-4.3545c0.13727-0.07054 0.19619-0.23543 0.13456-0.37687zm-9.1382 4.3423c-0.069 0.03538-0.12105 0.09678-0.1448 0.1706-0.02376 0.07382-0.01718 0.15401 0.01827 0.22301 0.9791 1.9068 1.1569 4.0809 0.50077 6.1218-0.65609 2.0409-2.0676 3.7041-3.9744 4.683-1.1473 0.58914-2.3783 0.88781-3.6588 0.88781-3.0267 0-5.7649-1.6712-7.1463-4.3614-0.05175-0.10087-0.15415-0.1589-0.26036-0.1589-0.04495 0-0.09056 0.01045-0.13332 0.03231l-4.6519 2.3885 0.72071-0.4947c1.7542-1.2044 2.7911-3.2061 2.7737-5.3547-0.02712-3.3068 1.7822-6.2987 4.7217-7.808 1.2422-0.63782 2.575-0.96119 3.9612-0.96119 1.8318 0 3.6557 0.59455 5.1355 1.6742 1.1164 0.81486 2.432 1.2456 3.8043 1.2456 0.74008 0 1.468-0.12755 2.1636-0.37921l0.82202-0.29742z"/>
  <path d="m38.604 32.737c-0.15636 0.04035-0.25042 0.19977-0.21007 0.35619 0.16476 0.63848 0.19187 1.2932 0.0807 1.946-0.02712 0.1592 0.07997 0.31021 0.23909 0.33733 0.01667 0.0029 0.03318 0.0042 0.04948 0.0042 0.13991 0 0.26358-0.10072 0.28785-0.24333 0.12514-0.7346 0.09459-1.4715-0.09093-2.1903-0.04028-0.15642-0.19999-0.25028-0.35611-0.21007z"/>
  <path d="m38.068 36.925c-0.13098-0.09429-0.31372-0.0644-0.40809 0.06666-0.11213 0.15583-0.23507 0.30612-0.36547 0.44668-0.10986 0.11841-0.10292 0.30334 0.01542 0.4132 0.05628 0.05226 0.12762 0.07806 0.19882 0.07806 0.0785 0 0.15679-0.03143 0.21439-0.09349 0.14685-0.15832 0.28529-0.32747 0.41152-0.50303 0.09429-0.13106 0.06447-0.31379-0.06659-0.40809z"/>
  <path d="m36.001 38.416c-0.94262 0.48411-1.9893 0.63299-3.027 0.43068-0.1584-0.03099-0.31204 0.07258-0.34288 0.23105-0.03084 0.15847 0.07258 0.31204 0.23106 0.34288 0.33857 0.066 0.67795 0.09875 1.0152 0.09875 0.8256 0 1.6378-0.19655 2.3908-0.58314 0.14363-0.07375 0.20028-0.24998 0.12653-0.39368-0.07383-0.14364-0.25005-0.20028-0.39369-0.12653z"/>
  <path d="m31.205 38.103c-0.24231-0.16731-0.46956-0.35852-0.67554-0.56831-0.11315-0.11534-0.2983-0.11702-0.41342-0.0039-0.11527 0.11308-0.11702 0.29823-0.0039 0.41342 0.23186 0.23624 0.48776 0.45158 0.76055 0.63994 0.05073 0.03501 0.10854 0.05182 0.16593 0.05182 0.09283 0 0.18413-0.04415 0.24084-0.12631 0.09173-0.13281 0.0584-0.31489-0.07448-0.4067z"/>
  <path d="m38.023 29.754c0.01119-0.09692-0.02661-0.19304-0.10094-0.25627-1.1313-0.96287-2.5729-1.4933-4.0594-1.4933-0.99656 0-1.9544 0.23236-2.847 0.69067-2.2596 1.1602-3.5834 3.5468-3.3724 6.0802 0.0081 0.09721 0.06418 0.18405 0.14948 0.23142 0.04408 0.02441 0.0929 0.03669 0.14187 0.03669 0.04576 0 0.09159-0.01074 0.13354-0.03223l9.798-5.0307c0.08684-0.04466 0.14568-0.1296 0.15694-0.22652zm-9.8168 4.5289c-0.01265-2.128 1.1609-4.084 3.0766-5.0675 0.80908-0.41547 1.6771-0.62613 2.5799-0.62613 1.1991 0 2.3658 0.38053 3.3308 1.0792z"/>
  <path d="m26.946 35.123c0.0081 0 0.01637-3.41e-4 0.02456-1e-3 0.16095-0.01345 0.28046-0.15474 0.26709-0.31562-0.05906-0.70931-0.0042-1.4212 0.16329-2.1159 0.03786-0.15694-0.05877-0.31489-0.21578-0.35275-0.15686-0.03772-0.31489 0.05877-0.35275 0.21578-0.18208 0.75543-0.2418 1.5298-0.17755 2.3015 0.01279 0.1527 0.14063 0.26811 0.29114 0.26811z"/>
  <path d="m27.343 31.851c0.03662 0.0152 0.07456 0.02237 0.11191 0.02237 0.11468 0 0.22352-0.0679 0.27016-0.18047 0.60245-1.4531 1.706-2.6495 3.1073-3.369 1.6567-0.85053 3.5351-0.97252 5.2894-0.34347 0.15182 0.05453 0.31942-0.02449 0.37388-0.17652 0.05453-0.15197-0.02449-0.31942-0.17652-0.37388-1.8806-0.67444-3.9778-0.5382-5.7538 0.37366-1.5243 0.7827-2.7249 2.0844-3.3803 3.6653-0.06191 0.14918 0.0089 0.32022 0.15803 0.38207z"/>
  <path d="m36.9 28.317c0.46429 0.23632 0.90023 0.52679 1.2957 0.86347 0.05504 0.04685 0.12236 0.06973 0.18939 0.06973 0.08274 0 0.16497-0.03494 0.22279-0.10284 0.10467-0.12294 0.08983-0.3075-0.03311-0.41218-0.4303-0.36628-0.90454-0.68226-1.4095-0.93934-0.14407-0.07331-0.31993-0.01593-0.39317 0.12791-0.07324 0.14385-0.01593 0.32001 0.12791 0.39324z"/>
  <path d="m40.929 29.215-0.56867 0.29194c-0.14363 0.07375-0.20035 0.24998-0.12659 0.39362 0.05183 0.10094 0.15423 0.1589 0.26036 0.1589 0.04495 0 0.09056-0.01045 0.13326-0.03231l0.56867-0.29194c0.14364-0.07375 0.20035-0.24998 0.12659-0.39362-0.07375-0.1437-0.25005-0.20028-0.39362-0.12659z"/>
  <path d="m39.357 30.643c0.04495 0 0.09056-0.01045 0.13332-0.03238l0.26241-0.13471c0.14364-0.07375 0.20028-0.24998 0.12653-0.39362-0.07375-0.14364-0.25005-0.20043-0.39362-0.12653l-0.26241 0.13471c-0.14364 0.07375-0.20028 0.24998-0.12653 0.39362 0.05175 0.10094 0.15415 0.1589 0.26029 0.1589z"/>
  <path d="m38.391 30.518-6.4734 3.3238c-0.14364 0.07375-0.20028 0.24998-0.12653 0.39369 0.05182 0.10087 0.15423 0.1589 0.26036 0.1589 0.04495 0 0.09056-0.01045 0.13332-0.03231l6.4734-3.3238c0.14364-0.07375 0.20028-0.24998 0.12653-0.39368-0.07382-0.14364-0.25005-0.2002-0.39368-0.12659z"/>
  <path d="m31.131 34.245-3.1929 1.6395c-0.14364 0.07375-0.20028 0.24998-0.12653 0.39368 0.05182 0.10087 0.15423 0.1589 0.26036 0.1589 0.04495 0 0.09057-0.01045 0.13332-0.03231l3.1929-1.6395c0.14364-0.07375 0.20028-0.24998 0.12653-0.39368-0.07383-0.14364-0.24998-0.20035-0.39368-0.12659z"/>
  <path d="m27.413 36.483c-0.07375-0.14356-0.24991-0.20028-0.39368-0.12653l-0.9185 0.4716c-0.14363 0.07375-0.20028 0.24998-0.12652 0.39368 0.05182 0.10087 0.15423 0.1589 0.26036 0.1589 0.04495 0 0.09056-0.01045 0.13332-0.03231l0.9185-0.4716c0.14364-0.07383 0.20028-0.25013 0.12653-0.39376z"/>
  <path d="m25.095 39.5-1.1373 0.58395c-0.14364 0.07375-0.20028 0.24998-0.12653 0.39362 0.05175 0.10087 0.15416 0.1589 0.26036 0.1589 0.04495 0 0.09056-0.01045 0.13332-0.03238l1.1373-0.58395c0.14364-0.07375 0.20028-0.24998 0.12653-0.39362-0.07375-0.14364-0.25013-0.20035-0.39368-0.12653z"/>
  <path d="m22.996 40.577-3.1054 1.5945c-0.14364 0.07375-0.20028 0.24998-0.12653 0.39369 0.05182 0.10087 0.15423 0.1589 0.26036 0.1589 0.04495 0 0.09056-0.01045 0.13332-0.03231l3.1054-1.5945c0.14363-0.07375 0.20028-0.24998 0.12652-0.39368-0.07383-0.1437-0.25005-0.20035-0.39368-0.12659z"/>
  <path d="m47.843 28.442c0.04495 0 0.09056-0.01045 0.13332-0.03238l0.83101-0.42672c0.14364-0.07375 0.20028-0.24998 0.12653-0.39362-0.07375-0.14364-0.25005-0.20043-0.39362-0.12653l-0.83101 0.42672c-0.14364 0.07375-0.20028 0.24998-0.12653 0.39362 0.05175 0.10094 0.15416 0.1589 0.26029 0.1589z"/>
  <path d="m46.747 28.712c-0.07382-0.14363-0.24998-0.20028-0.39369-0.12652l-0.39368 0.2021c-0.14363 0.07375-0.20028 0.24998-0.12653 0.39368 0.05182 0.10087 0.15423 0.1589 0.26036 0.1589 0.04495 0 0.09056-0.01045 0.13332-0.03231l0.39368-0.20211c0.14356-0.0739 0.20028-0.25013 0.12653-0.39376z"/>
  <path d="m45.173 29.191-1.8371 0.94321c-0.14364 0.07375-0.20028 0.24998-0.12653 0.39369 0.05182 0.10087 0.15423 0.1589 0.26036 0.1589 0.04495 0 0.09056-0.01045 0.13332-0.03231l1.8371-0.94322c0.14364-0.07375 0.20028-0.24998 0.12653-0.39368-0.07375-0.1437-0.24998-0.20035-0.39368-0.12659z"/>
  <path d="m40.08 30.738-12.684 6.5128c-0.14363 0.07375-0.20028 0.24998-0.12653 0.39368 0.05183 0.10087 0.15423 0.1589 0.26036 0.1589 0.04495 0 0.09056-0.01045 0.13332-0.03231l0.78898-0.40509c1.1137 1.9437 3.1656 3.1397 5.4245 3.1398h3.41e-4c0.99745 0 1.9562-0.23259 2.8495-0.69133 1.4851-0.76252 2.5843-2.0577 3.0953-3.6471 0.48104-1.4961 0.38601-3.0843-0.26292-4.5042l0.78862-0.40494c0.14363-0.07375 0.20028-0.24998 0.12652-0.39368-0.07368-0.1437-0.24977-0.20028-0.39354-0.12659zm-0.81537 5.2504c-0.46313 1.4407-1.4595 2.6146-2.8057 3.3058-0.81004 0.41591-1.6787 0.62679-2.5825 0.62679h-3.41e-4c-2.0386-7.3e-5 -3.8917-1.074-4.9044-2.8221l10.066-5.1685c0.57788 1.2807 0.65975 2.7106 0.22659 4.058z"/>
  <path d="m20.049 37.158c0.81311 0 1.4747-0.6615 1.4747-1.4747s-0.6615-1.4747-1.4747-1.4747-1.4745 0.6615-1.4745 1.4747 0.66144 1.4747 1.4745 1.4747zm0-2.3644c0.49069 0 0.88985 0.39916 0.88985 0.88985s-0.39916 0.88985-0.88985 0.88985c-0.49061 0-0.88977-0.39916-0.88977-0.88985s0.3991-0.88985 0.88977-0.88985z"/>
  <path d="m48.303 37.282c-1.0086 0-1.8292 0.82063-1.8292 1.8292 0 1.0086 0.82063 1.8292 1.8292 1.8292 1.0086 0 1.8292-0.82063 1.8292-1.8292 0-1.0086-0.82055-1.8292-1.8292-1.8292zm0 3.0738c-0.68621 0-1.2445-0.55829-1.2445-1.2445 0-0.68621 0.55829-1.2445 1.2445-1.2445s1.2445 0.55829 1.2445 1.2445c0 0.68621-0.55823 1.2445-1.2445 1.2445z"/>
 </g>
</svg>
