<svg width="67.733mm" height="67.733mm" version="1.1" viewBox="0 0 67.733 67.733" xmlns="http://www.w3.org/2000/svg">
 <path d="m33.869 13.501c-7.5719 0-13.71 6.1383-13.71 13.71 0 6.7082 4.8178 12.292 11.182 13.478 0.56796 0.04178 0.7485-0.71191 0-0.88588-5.8815-1.174-10.313-6.3657-10.313-12.592 0-7.0919 5.7492-12.841 12.841-12.841 7.0919 0 12.841 5.7491 12.841 12.841 0 6.2428-4.4547 11.445-10.359 12.601-0.84552 0.06097-0.35183 0.98648 0 0.88588 6.3872-1.1678 11.228-6.7622 11.228-13.487 0-7.5719-6.1383-13.71-13.71-13.71zm-0.06893 10.39c-0.0071-7.94e-4 -0.01421 0.0013-0.02074 0.0029-0.0425 8e-3 -0.07594 0.05558-0.08149 0.17343v0.07603c-0.05618 0.98917 0.0114 8.9042-0.01701 8.934-0.01707 0.01844-0.28627-2.0412-0.46592-2.6054-0.03679-0.1156-0.55192-1.5362-0.78557-1.9117-0.06795-0.1092-0.46744-0.78631-0.73963-0.91512-0.14686-0.06947-0.19639 0.07523-0.19639 0.22564 0 0.14588 0.75875 1.1159 0.77304 1.147 0.09639 0.21056 0.7616 2.0433 0.76468 2.0643 0.01154 0.08038 0.3841 2.4116 0.37399 2.4905-0.10872 0.8491 0.16975 2.6549 0.16506 2.6305-0.05622-0.29346-0.152-0.57878-0.24445-0.8629-0.12567-0.38617-0.23647-0.78167-0.42204-1.1429-0.19688-0.38322-0.45426-0.73669-0.72501-1.0718-0.23077-0.28564-0.37326-0.47089-0.57247-0.70619-0.2175-0.25689-0.71402 0.01709-0.5453 0.24237 0.46284 0.61747 1.2012 1.4896 1.5732 2.3588 0.30017 0.7012 0.44669 1.4865 0.53697 2.2439 0.1742 1.4612 0.18302 3.8065 0.16298 5.4553l-0.08358 2.2439c-0.0079 0.0725 0.15763 2.741-1.3037 2.8812-0.10901 0.0103-0.21875 0.0198-0.32802 0.0293-3.6993 0.14436-7.4628 0.0991-11.174 0.35099-0.99688 0.0551-1.988 0.13659-2.9689 0.26328-0.02492 3e-3 -0.04636 0.0108-0.06685 0.0207-0.02294 3e-3 -0.04597 6e-3 -0.06892 8e-3 -0.17001 0.0212-0.14728 0.36418-0.0029 0.47429 0.0029 2e-3 0.0029 3e-3 0.0044 4e-3 0.04218 0.0479 0.1014 0.0778 0.17968 0.0732 1.2731-0.0765 2.531-0.14272 3.7754-0.19851 0.02846-2e-3 0.05719-2e-3 0.08566-3e-3 4.0652-0.14863 8.208-0.2503 12.484-0.25908 4.2772 9e-3 8.4214 0.11034 12.488 0.25908 0.02643 2e-3 0.05297 2e-3 0.07939 3e-3 1.2448 0.0558 2.502 0.122 3.7754 0.19851 0.07828 5e-3 0.13755-0.0252 0.1797-0.0732 0.0029-3e-3 0.0029-3e-3 0.0043-4e-3 0.14517-0.11011 0.16792-0.45306-0.0029-0.47429-0.02217-3e-3 -0.04458-6e-3 -0.06685-8e-3 -0.02053-0.01-0.04375-0.0175-0.06894-0.0207-0.98093-0.12669-1.9721-0.20819-2.9689-0.26328-3.711-0.25185-7.4745-0.20663-11.174-0.35099-0.10924-0.01-0.21898-0.0188-0.32799-0.0293-1.4614-0.14013-1.2962-2.8086-1.3037-2.8812l-0.08351-2.2586c-0.01995-1.6481-0.0108-3.9835 0.16292-5.4406 0.09033-0.7574 0.23681-1.5427 0.53699-2.2439 0.3721-0.8692 1.1125-1.7414 1.5753-2.3588 0.16871-0.22505-0.32988-0.49927-0.54738-0.24237-0.19925 0.2353-0.34172 0.42054-0.57248 0.7062-0.27079 0.33514-0.52814 0.6886-0.72501 1.0718-0.1856 0.3612-0.29642 0.7567-0.42203 1.1429-0.09247 0.2841-0.18617 0.56944-0.24238 0.86289-0.0044 0.02437 0.27171-1.7814 0.16295-2.6305-0.0098-0.07885 0.36228-2.4101 0.37399-2.4905 0.0029-0.02085 0.66828-1.8537 0.7647-2.0643 0.01431-0.03119 0.77304-1.0012 0.77304-1.147 0-0.15043-0.04952-0.29512-0.19636-0.22565-0.27221 0.12881-0.67168 0.80593-0.73962 0.91513-0.23366 0.37551-0.74672 1.7961-0.78354 1.9118-0.17962 0.56423-0.44861 2.6236-0.46591 2.6054-0.02814-0.02975 0.0374-7.9448-0.01868-8.934-2.9e-5 -7.94e-4 2.9e-5 -0.0029 0-0.0029v-0.07314c-9e-3 -0.19055-0.08921-0.19487-0.16715-0.15253-0.02262-0.01254-0.04552-0.02183-0.06686-0.02294z" fill="#999ea3"/>
</svg>
