<?xml version="1.0" encoding="UTF-8" standalone="no"?>
<svg
   width="67.733mm"
   height="67.733mm"
   version="1.1"
   viewBox="0 0 67.733 67.733"
   id="svg10"
   sodipodi:docname="pwmanager.svg"
   inkscape:version="1.1 (c68e22c387, 2021-05-23)"
   xmlns:inkscape="http://www.inkscape.org/namespaces/inkscape"
   xmlns:sodipodi="http://sodipodi.sourceforge.net/DTD/sodipodi-0.dtd"
   xmlns="http://www.w3.org/2000/svg"
   xmlns:svg="http://www.w3.org/2000/svg">
  <defs
     id="defs14" />
  <sodipodi:namedview
     id="namedview12"
     pagecolor="#505050"
     bordercolor="#eeeeee"
     borderopacity="1"
     inkscape:pageshadow="0"
     inkscape:pageopacity="0"
     inkscape:pagecheckerboard="0"
     inkscape:document-units="mm"
     showgrid="false"
     inkscape:zoom="3.0429836"
     inkscape:cx="118.79788"
     inkscape:cy="126.68487"
     inkscape:window-width="1920"
     inkscape:window-height="1013"
     inkscape:window-x="-9"
     inkscape:window-y="-9"
     inkscape:window-maximized="1"
     inkscape:current-layer="svg10" />
  <path
     style="color:#000000;fill:#999ea3;-inkscape-stroke:none;fill-opacity:1"
     d="m 37.964844,17.136719 c -0.722992,0.02033 -1.366523,0.196646 -1.90625,0.435547 -1.034633,0.457962 -1.681524,1.123493 -1.888672,1.314453 -0.594676,-0.130476 -1.38776,-0.185126 -2.269531,0.09766 -0.963738,0.309069 -1.964768,0.980131 -2.621094,2.210937 v 0.002 l -0.02539,0.04687 v 0.0039 c -0.01164,0.02227 -0.02341,0.04296 -0.03516,0.06641 -1.061196,2.117326 -0.604711,4.013806 0.269531,5.267578 0.483641,0.693619 1.126128,1.154349 1.455078,1.472656 1.098785,1.063268 0.932591,2.217067 0.628907,2.697266 -0.53789,0.850476 -1.245913,0.907194 -1.820313,0.611328 -0.331958,-0.170994 -0.465448,-0.361044 -0.521484,-0.554687 -0.05604,-0.193644 -0.02776,-0.413675 0.06641,-0.626953 0.03084,-0.06986 0.142218,-0.182022 0.277344,-0.242188 0.135125,-0.06017 0.27633,-0.06143 0.335937,-0.03711 0.0077,0.0031 0.04081,0.02955 0.105469,0.11914 0.06466,0.08959 0.158972,0.244222 0.363281,0.330078 0.194528,0.08173 0.404051,0.11482 0.611328,0.07227 0.207278,-0.04255 0.414717,-0.181186 0.521485,-0.394531 0.173722,-0.347126 0.07471,-0.724239 -0.09766,-0.990235 -0.172367,-0.265995 -0.413187,-0.465341 -0.642578,-0.597656 -0.479281,-0.276467 -1.07572,-0.37678 -1.652343,-0.246094 -0.576624,0.130687 -1.131913,0.508629 -1.46875,1.154297 -0.342821,0.657094 -0.478872,1.310913 -0.328125,1.941407 0.150747,0.630493 0.575485,1.206205 1.251953,1.751953 0.322493,0.260201 0.767225,0.369065 1.154297,0.453125 0.140739,0.03056 0.147795,0.02659 0.259765,0.04492 l -0.777344,1.396484 -0.0098,0.04297 c -0.05346,0.235777 0.07306,0.433133 0.09766,0.480468 0.0123,0.02367 0.0064,0.01546 0.0059,0 -4.11e-4,-0.01135 -0.004,-4.08e-4 -0.0098,0.01172 l -0.01563,-0.0098 -0.02148,-0.0098 c -0.539335,-0.246882 -1.196661,-0.07658 -1.484375,0.441406 -0.29028,0.522447 -0.08276,1.178544 0.421875,1.503906 l 0.0078,0.0059 0.01367,0.0078 -0.002,0.0039 -0.0078,0.01172 c -0.04486,0.07477 -0.04771,0.07874 -0.0039,0.0078 l -0.002,0.0059 -0.0059,-0.0039 -0.02539,-0.01367 -0.01563,-0.0078 c -0.538102,-0.240607 -1.188628,-0.06544 -1.47461,0.449218 -0.291572,0.524733 -0.08111,1.182277 0.427735,1.50586 l 0.01172,0.0059 0.0039,0.0039 -0.002,0.0039 -0.02148,-0.01563 -0.02734,-0.01367 c -0.536687,-0.237141 -1.185478,-0.06211 -1.470704,0.451172 -0.289498,0.520989 -0.07723,1.168194 0.423829,1.49414 -0.06359,0.0049 -0.292681,0.05044 -0.445313,0.205078 l -0.03125,0.03125 -4.742187,8.548828 -0.0098,0.04492 c -0.04659,0.208764 0.01567,0.370741 0.04297,0.460938 l -0.01367,-0.0059 c -0.04238,-0.01855 -0.08735,0.0057 -0.13086,-0.0078 l -0.04102,-0.0098 -0.0039,0.0059 c -0.495538,-0.1328 -1.036753,0.0073 -1.291016,0.464843 -0.252624,0.45464 -0.07975,0.975555 0.289062,1.326172 l -0.0098,0.01563 0.105469,0.111328 c 0.01545,0.01115 0.01713,0.03247 0.0332,0.04297 -0.02489,0.0032 -0.04665,0.0046 -0.0957,0.01758 -0.06816,0.01803 -0.186613,0.06855 -0.257813,0.181641 l -0.002,0.0039 -0.0039,0.0039 c -0.178608,0.305321 -0.174447,0.658105 -0.119141,0.996094 0.04393,0.268488 0.150469,0.50983 0.259766,0.738281 l -0.07617,0.136719 0.279297,0.246094 -0.04687,-0.05273 c 0.09268,0.130698 0.189333,0.247045 0.357422,0.320312 0.15018,0.102269 0.300354,0.123206 0.457031,0.132813 l -0.07227,-0.01367 0.359375,0.109375 0.07813,-0.138672 c 0.250956,-0.02805 0.511232,-0.06395 0.761719,-0.167969 0.316068,-0.131251 0.61831,-0.316041 0.783203,-0.628906 l 0.002,-0.0039 0.002,-0.0039 c 0.05845,-0.120182 0.04023,-0.247038 0.01953,-0.314453 -0.01499,-0.04882 -0.02665,-0.06896 -0.03711,-0.0918 0.01638,0.0076 0.0342,-9.96e-4 0.05078,0.0059 l 0.126954,0.02539 0.0078,-0.01367 c 0.49975,0.142059 1.049408,0.01174 1.306641,-0.451171 0.254402,-0.457829 0.08598,-0.991198 -0.289063,-1.341797 l 0.0039,-0.0078 -0.0332,-0.0332 c -0.0315,-0.02701 -0.03377,-0.07367 -0.06836,-0.09766 -0.01026,-0.0065 -0.01384,-0.0083 -0.02539,-0.01563 0.0094,-0.0029 -0.0075,0.0061 0.0078,0.002 0.09041,-0.02463 0.263106,-0.05695 0.416015,-0.207031 l 0.03125,-0.03125 0.302735,-0.542969 3.109375,1.726562 0.0918,-0.0059 c 0.107847,-0.0073 0.342333,-0.05022 0.470703,-0.244141 l 0.0078,-0.0098 0.626953,-1.126953 0.345704,0.193359 -0.638672,1.148438 -0.0098,0.04297 c -0.03035,0.129735 -0.02646,0.268486 0.02148,0.378907 0.04794,0.11042 0.109505,0.164512 0.117188,0.173828 l 0.03906,0.04492 0.859375,0.478515 0.0332,0.0098 c 0.08375,0.0242 0.188984,0.04757 0.318359,0.01172 0.129375,-0.03585 0.252305,-0.153771 0.304687,-0.273438 l -0.01172,0.02734 1.861328,-3.353516 1.210937,-2.18164 c 0.07398,-0.107693 0.108241,-0.273525 0.07031,-0.402344 -0.03793,-0.128819 -0.11106,-0.207335 -0.175781,-0.265625 l -0.02734,-0.02344 -0.859375,-0.478515 -0.05859,-0.0059 c -0.01174,-0.0016 -0.09189,-0.02734 -0.210937,-0.0098 -0.11905,0.01758 -0.237875,0.08733 -0.332032,0.18164 l -0.03125,0.03125 -0.638672,1.150391 -0.345703,-0.193359 0.625,-1.126954 0.0039,-0.01172 C 31.137807,46.972379 31.051236,46.750184 31,46.654297 l -0.04297,-0.08203 -3.103515,-1.722657 0.863281,-1.552734 0.0098,-0.04297 c 0.05081,-0.211768 -0.03127,-0.430406 -0.06055,-0.486328 0.541411,0.253255 1.204655,0.09126 1.49414,-0.429687 0.285214,-0.513325 0.08833,-1.155887 -0.396484,-1.486329 l -0.02344,-0.01563 -0.02539,-0.0098 0.002,-0.0039 v -0.002 l 0.0078,0.0039 0.0078,0.0039 c 0.543525,0.261177 1.214286,0.09307 1.505859,-0.431641 0.285959,-0.514657 0.0901,-1.158443 -0.398437,-1.488281 l -0.01563,-0.01172 -0.02734,-0.01367 h -0.002 l 0.0098,-0.01563 0.0059,-0.01367 0.01367,0.0059 0.0078,0.0059 c 0.542818,0.256645 1.209721,0.08497 1.5,-0.4375 0.287758,-0.517885 0.08604,-1.16648 -0.408203,-1.49414 l -0.01953,-0.01367 -0.01563,-0.0078 c 0.006,-0.009 0.01326,-0.01903 0.0039,-0.01367 -0.01342,0.0077 -0.02464,0.006 0.002,0.0039 0.05318,-0.0041 0.288968,9e-6 0.460938,-0.169922 l 0.03125,-0.03125 0.77539,-1.398438 c 0.07467,0.08535 0.07363,0.09399 0.173828,0.197266 0.275817,0.284275 0.60481,0.605779 0.996094,0.742187 0.820761,0.286133 1.533432,0.339787 2.148438,0.134766 0.615005,-0.205021 1.099663,-0.664579 1.476562,-1.302734 0.370322,-0.62705 0.396713,-1.296811 0.203125,-1.855469 -0.193588,-0.558658 -0.594065,-1.012496 -1.082031,-1.273438 -0.233503,-0.124886 -0.530754,-0.224596 -0.847656,-0.230468 -0.316903,-0.0059 -0.689578,0.110546 -0.892578,0.441406 -0.124764,0.203353 -0.12999,0.451912 -0.05664,0.650391 0.07335,0.198478 0.210676,0.358462 0.382812,0.480468 0.180815,0.128156 0.362425,0.127183 0.472657,0.134766 0.110231,0.0076 0.149508,0.02051 0.15625,0.02539 0.05214,0.03777 0.124247,0.158172 0.144531,0.304687 0.02028,0.146516 -0.0136,0.300175 -0.05664,0.363281 -0.131353,0.192601 -0.304017,0.333975 -0.498047,0.388672 -0.194029,0.0547 -0.42753,0.04116 -0.748046,-0.15039 -0.554622,-0.331452 -0.877497,-0.961254 -0.439454,-1.867188 0.247289,-0.511389 1.137831,-1.263994 2.621094,-0.892578 0.444024,0.111192 1.175123,0.412709 2.019531,0.457031 1.526439,0.08012 3.375954,-0.531436 4.613282,-2.550781 0.751437,-1.22638 0.813454,-2.457133 0.572265,-3.460938 -0.221077,-0.920103 -0.692571,-1.581858 -1.125,-2.02539 0.05245,-0.275912 0.275056,-1.177528 0.117188,-2.298828 -0.15452,-1.097515 -0.756018,-2.368315 -2.117188,-3.396485 l 0.04492,-0.08203 -0.253906,-0.15625 c -0.133736,-0.08184 -0.266237,-0.157975 -0.398438,-0.228516 l -0.0098,-0.0059 C 40.649353,17.770549 40.51534,17.699344 40.375,17.628906 l -0.267578,-0.134765 -0.04687,0.08398 C 39.316687,17.29184 38.599223,17.11888 37.964844,17.136719 Z m 0.01172,0.617187 c 0.631317,-0.01832 1.33912,0.104933 2.121094,0.455078 l 0.212891,0.0957 c 0.0542,0.02947 0.112119,0.05773 0.164062,0.08789 l 0.0059,0.002 0.0039,0.0039 c 0.0553,0.02939 0.113769,0.06374 0.169922,0.0957 l 0.185547,0.126953 c 1.420506,0.958264 1.908667,2.144496 2.054687,3.18164 0.14602,1.037145 -0.06279,1.873488 -0.11914,2.203125 l -0.0293,0.167969 0.125,0.115234 c 0.349584,0.320492 0.83373,1.025654 1.042968,1.896485 0.209239,0.87083 0.165633,1.905126 -0.498046,2.988281 -1.124176,1.834679 -2.706035,2.324285 -4.046875,2.253906 -0.711326,-0.03734 -1.368914,-0.306361 -1.900391,-0.439453 -1.733985,-0.434197 -2.941669,0.409268 -3.335938,1.22461 -0.551433,1.140439 -0.114062,2.202208 0.681641,2.677734 0.43423,0.259516 0.870744,0.318454 1.238281,0.214844 0.367538,-0.10361 0.649359,-0.351685 0.84375,-0.636719 0.164831,-0.241672 0.197809,-0.528813 0.160157,-0.800781 -0.03765,-0.271969 -0.149886,-0.54791 -0.396485,-0.726563 -0.180197,-0.130533 -0.366037,-0.134706 -0.480469,-0.142578 -0.114431,-0.0079 -0.157872,-0.02402 -0.154296,-0.02148 -0.08468,-0.06002 -0.138644,-0.134575 -0.158204,-0.1875 -0.01956,-0.05293 -0.01882,-0.07037 0.0039,-0.107422 0.06702,-0.109227 0.166577,-0.14597 0.349609,-0.142578 0.183032,0.0034 0.414304,0.07594 0.564453,0.15625 0.343756,0.183824 0.645766,0.52548 0.785156,0.927734 0.139391,0.402254 0.128746,0.856074 -0.152343,1.332031 -0.326587,0.552968 -0.689058,0.880714 -1.134766,1.029297 -0.445707,0.148583 -1.007231,0.124769 -1.746094,-0.132812 -0.165067,-0.05755 -0.501483,-0.32974 -0.751953,-0.587891 -0.25047,-0.258151 -0.435547,-0.492187 -0.435547,-0.492187 l -0.291015,-0.371094 -1.15625,2.085937 c 0.01163,-0.0053 0.04515,-0.01569 -0.05664,-0.0078 -0.06319,0.0049 -0.163436,0.01875 -0.263672,0.07617 -0.09946,0.05698 -0.182264,0.150965 -0.242187,0.259765 -0.163964,0.295072 -0.05404,0.674954 0.240234,0.839844 h -0.002 c 6.66e-4,4.41e-4 -6.63e-4,0.0015 0,0.002 0.248529,0.166033 0.32571,0.45438 0.207031,0.667969 -0.120068,0.216109 -0.411085,0.303594 -0.685547,0.173828 l 0.0078,0.0039 c -0.294422,-0.163792 -0.67553,-0.05547 -0.839844,0.240235 h -0.002 v 0.002 c -0.0046,0.0083 -0.0075,0.01676 -0.01172,0.02539 l -0.002,0.002 -0.0078,0.01367 c -3.52e-4,6.35e-4 3.49e-4,0.0013 0,0.002 -3.5e-4,6.35e-4 3.46e-4,0.0013 0,0.002 -0.160864,0.295175 -0.05099,0.67305 0.242187,0.835937 0.0013,6.99e-4 0.0026,0.0013 0.0039,0.002 0.244456,0.166321 0.31919,0.453613 0.201172,0.666016 -0.12056,0.216958 -0.411591,0.304456 -0.6875,0.171875 l 0.0098,0.0059 c -0.295713,-0.164294 -0.675543,-0.05546 -0.839844,0.240235 h -0.002 c -0.01174,0.02128 -0.02301,0.04682 -0.0332,0.07227 -0.121947,0.286416 -0.0097,0.629152 0.267578,0.783203 0.0013,7.45e-4 0.0044,0.0031 0.0059,0.0039 0.242877,0.166809 0.318644,0.452638 0.201172,0.664062 -0.120858,0.217491 -0.415028,0.30371 -0.691406,0.169922 l -0.0039,-0.002 c -2.59e-4,-1.33e-4 -0.0019,4.4e-5 -0.002,0 -0.0052,-0.0026 -0.01267,-0.0067 -0.0039,-0.002 l -0.0078,-0.0039 -0.0098,-0.0059 c -0.289914,-0.134001 -0.643687,-0.02102 -0.800781,0.261719 l -0.01953,0.03711 -0.0098,0.04102 c -0.05579,0.227812 0.01173,0.453047 0.05078,0.525391 0.02312,0.04283 0.0066,0.03731 0.002,0.03125 l -1.113281,2.003906 3.427735,1.904297 -0.6875,1.238281 0.01758,0.107422 c 0.01586,0.09858 0.03316,0.295585 0.214843,0.447265 l 0.02148,0.01953 0.615234,0.341797 0.04102,0.0098 c 0.129703,0.03197 0.293233,0.02442 0.402344,-0.04492 0.10911,-0.06934 0.114648,-0.08487 0.05469,-0.05273 l 0.08008,-0.04297 0.679688,-1.222656 0.564453,0.3125 -1.169922,2.107422 -1.808594,3.251953 -0.564453,-0.3125 0.681641,-1.224609 -0.0059,-0.0918 c 0.0044,0.06784 0.01244,0.05502 0.01367,-0.07422 0.0012,-0.129243 -0.0782,-0.271986 -0.173828,-0.365234 l -0.0293,-0.0293 -0.615234,-0.341797 -0.0293,-0.0078 c -0.224738,-0.07396 -0.40013,0.0161 -0.492188,0.05469 l -0.09961,0.04102 -0.6875,1.238282 -3.433594,-1.908203 -0.548828,0.984375 c -0.01143,0.0066 -0.034,0.01872 -0.123047,0.04297 -0.102966,0.02804 -0.303708,0.07882 -0.421875,0.279297 l -0.002,0.0039 -0.002,0.002 c -0.0672,0.120967 0.03089,0.236648 0.04883,0.365234 l -0.162109,0.294922 0.294922,0.142578 c 0.0013,6.45e-4 0.0043,0.0012 0.0059,0.002 l -0.02734,-0.01758 v 0.002 l -0.01953,-0.01758 c 0.01508,0.01289 0.03108,0.02216 0.04687,0.0332 0.0046,0.0023 0.009,0.0065 0.01563,0.0098 0.0128,0.0084 0.02415,0.0201 0.03711,0.02734 h 0.002 v 0.002 c 0.003,0.0016 0.0067,0.0023 0.0098,0.0039 0.238906,0.166946 0.312158,0.451832 0.195313,0.662109 -0.119946,0.215853 -0.408986,0.303327 -0.683594,0.173828 -0.01009,-0.0054 -0.01668,-0.0076 -0.02539,-0.01172 l -0.01367,-0.0059 c -0.001,-5.74e-4 -0.0044,-0.003 -0.0059,-0.0039 -0.005,-0.0029 -0.0095,-0.0076 -0.01953,-0.01367 l -0.277344,-0.167969 -0.158203,0.283203 0.0039,-0.0039 0.326172,-0.138672 c -0.258013,-0.05271 -0.530726,0.06849 -0.664062,0.306641 -0.09999,0.179351 -0.05492,0.370488 -0.01758,0.478516 -0.06947,0.09467 -0.204379,0.215992 -0.417968,0.304687 -0.239562,0.09948 -0.529632,0.15948 -0.742188,0.166016 l -0.177734,0.0059 0.0098,-0.01758 c -0.03444,-0.0082 -0.08632,-0.01667 -0.08008,-0.01172 l -0.04687,-0.04297 -0.06055,-0.01758 c 0.0093,0.0037 -0.03048,-0.03679 -0.05664,-0.0625 l -0.0098,0.01758 -0.08789,-0.152343 c -0.106724,-0.183541 -0.210041,-0.460659 -0.251954,-0.716797 -0.0374,-0.228564 -0.0049,-0.408317 0.03906,-0.517578 0.111281,-0.0251 0.298651,-0.0874 0.398437,-0.267578 0.06543,-0.117728 -0.02966,-0.231761 -0.04492,-0.357422 l 0.164062,-0.296875 -0.289062,-0.146485 c -0.0138,-0.007 -0.02326,-0.01141 -0.02734,-0.01367 l -0.01367,-0.0078 c -0.0068,-0.0044 -0.01119,-0.0088 -0.01953,-0.01367 -0.256621,-0.16452 -0.337069,-0.459332 -0.216797,-0.675781 0.116861,-0.210301 0.398091,-0.296319 0.666015,-0.181641 0.0037,0.0021 0.0059,0.0037 0.0098,0.0059 0.01568,0.0087 0.03392,0.01393 0.05078,0.02148 7.86e-4,3.52e-4 0.0012,0.0016 0.002,0.002 6.4e-5,10e-5 0.003,0.0012 0.01367,0.0078 l 0.277344,0.171875 0.164063,-0.292969 c 0.117887,-0.05279 0.267115,-0.03005 0.333984,-0.150391 l 0.002,-0.002 0.002,-0.0039 c 0.108133,-0.206802 0.04451,-0.40351 0.01367,-0.50586 -0.02753,-0.09138 -0.02916,-0.119501 -0.0293,-0.130859 l 4.63086,-8.347656 c -0.007,-0.0023 -0.0213,-0.01056 0.0293,-0.01367 0.08205,-0.0051 0.310635,-0.06668 0.47461,-0.234375 l 0.0293,-0.03125 0.01953,-0.03711 c 0.157054,-0.282721 0.0657,-0.640993 -0.201172,-0.816407 l -0.0059,-0.0039 -0.0078,-0.0039 c 0.0056,0.0033 0.0039,0.0024 -0.0059,-0.0039 l -0.002,-0.002 -0.002,-0.002 c -0.261202,-0.163734 -0.343802,-0.459718 -0.222657,-0.677734 0.117129,-0.210781 0.398695,-0.298317 0.667969,-0.181641 0.0011,6.03e-4 0.0051,0.0035 0.0059,0.0039 h 0.002 v 0.002 c 0.277881,0.154394 0.630173,0.06672 0.808593,-0.189453 0.01607,-0.02192 0.03086,-0.04463 0.04297,-0.06641 0.164296,-0.295703 0.05547,-0.675523 -0.240234,-0.839843 l 0.0098,0.0059 c -0.258327,-0.164273 -0.337364,-0.458801 -0.216797,-0.675781 0.117597,-0.211626 0.400443,-0.297544 0.669922,-0.179688 0.0013,7.13e-4 0.0027,0.0013 0.0039,0.002 h 0.002 c 0.293784,0.163438 0.672999,0.05599 0.83789,-0.238281 -0.0014,0.0022 0.0036,-0.0026 0.002,0 -0.0037,0.0061 0.0049,-0.01013 0,-0.002 0.0087,-0.01298 0.01702,-0.0259 0.02539,-0.04102 0.163883,-0.295716 0.05222,-0.676241 -0.242187,-0.839843 h 0.002 l 0.0059,0.0059 c -0.255118,-0.164489 -0.332968,-0.459667 -0.212891,-0.675781 0.118367,-0.213102 0.402161,-0.299744 0.673829,-0.177735 h 0.002 0.002 c 0.295425,0.162754 0.673941,0.05481 0.83789,-0.240234 0.06101,-0.108555 0.09791,-0.228913 0.09375,-0.34375 -0.0042,-0.115444 -0.04695,-0.207434 -0.07617,-0.263672 -0.04793,-0.09225 -0.03686,-0.05762 -0.03516,-0.04492 l 1.160157,-2.082031 -0.46875,-0.05078 c 0,0 -0.296935,-0.03304 -0.648438,-0.109375 -0.351503,-0.07634 -0.758491,-0.220316 -0.894531,-0.330078 -0.60896,-0.491286 -0.927863,-0.955189 -1.03711,-1.41211 -0.109246,-0.45692 -0.02166,-0.936484 0.275391,-1.505859 0.255667,-0.490077 0.635582,-0.739884 1.050781,-0.833985 0.415199,-0.0941 0.865497,-0.01702 1.203125,0.177735 0.147494,0.08508 0.332085,0.242851 0.431641,0.396484 0.09956,0.153633 0.119846,0.256507 0.0625,0.371094 -0.01945,0.03887 -0.03262,0.0492 -0.08789,0.06055 -0.05527,0.01135 -0.148446,0.0051 -0.24414,-0.03516 0.004,0.0017 -0.03248,-0.02613 -0.09961,-0.119141 -0.06713,-0.09301 -0.168983,-0.249926 -0.375,-0.333984 -0.281954,-0.115037 -0.575351,-0.0648 -0.826172,0.04687 -0.25082,0.111679 -0.475602,0.292945 -0.59375,0.560546 -0.139354,0.315618 -0.20185,0.685922 -0.0957,1.052735 0.106147,0.366813 0.386219,0.705846 0.835938,0.9375 0.824058,0.424461 1.955687,0.23664 2.632812,-0.833985 0.484115,-0.765502 0.563826,-2.23746 -0.720703,-3.480468 -0.393741,-0.381002 -0.969539,-0.796563 -1.376953,-1.38086 -0.768012,-1.101425 -1.188663,-2.7054 -0.224609,-4.628906 h -0.002 c 0.01731,-0.03453 0.03576,-0.06993 0.05469,-0.105469 0.577763,-1.083476 1.425137,-1.641866 2.261719,-1.910156 0.836582,-0.26829 1.671451,-0.227126 2.121094,-0.101562 l 0.164062,0.04492 0.126953,-0.113281 c 0.250039,-0.221976 0.850897,-0.84367 1.808594,-1.267578 0.478849,-0.211954 1.032746,-0.370348 1.664062,-0.388672 z m 0.0332,1.667969 c -0.600988,0.01359 -1.243892,0.254194 -1.91211,0.818359 l -0.201172,0.169922 0.134766,0.228516 c 0,0 0.142474,0.239419 0.292969,0.546875 0.150495,0.307456 0.30069,0.694279 0.322265,0.886719 0.0646,0.576309 -0.0098,1.20941 -0.285156,1.664062 -0.317173,0.523658 -0.747227,0.929558 -1.185547,1.150391 -0.438319,0.220833 -0.869696,0.261268 -1.253906,0.0957 -0.08715,-0.03756 -0.195685,-0.152249 -0.246094,-0.292969 -0.05041,-0.140719 -0.04862,-0.287872 0.02734,-0.417969 0.174227,-0.29839 0.664062,-0.322265 0.664062,-0.322265 l 0.0625,0.002 0.05859,-0.02344 c 0,0 0.141145,-0.05809 0.302735,-0.158203 0.16159,-0.100109 0.360769,-0.240417 0.488281,-0.478515 0.230017,-0.429485 0.169395,-0.917458 -0.01758,-1.314454 -0.186974,-0.396995 -0.497249,-0.729223 -0.878907,-0.90039 -0.615332,-0.275966 -1.24853,-0.231203 -1.765625,-0.01563 -0.517094,0.215577 -0.930069,0.591017 -1.166015,1.015625 l -0.330078,0.591797 0.255859,-0.05273 c -0.385213,1.170286 -0.166156,2.543838 1.179688,3.572266 0.903461,0.68952 2.129264,0.752493 3.177734,0.515625 0.0023,0.002 0.02096,0.01393 0.07227,0.04883 l 0.02344,0.01563 0.02539,0.01172 c 0.05695,0.02522 0.07592,0.03663 0.07813,0.03711 0.353202,1.01492 1.054559,2.021617 2.117187,2.423828 1.819795,0.688859 3.380991,0.01321 4.074219,-1.234375 0.235873,-0.424492 0.335876,-0.972551 0.246094,-1.52539 -0.08978,-0.552839 -0.385963,-1.115446 -0.945313,-1.492188 -0.346921,-0.233672 -0.792659,-0.320449 -1.228515,-0.269531 -0.435857,0.05092 -0.883739,0.257533 -1.126954,0.679687 -0.134653,0.233721 -0.148479,0.476124 -0.148437,0.666016 4.2e-5,0.189893 0.02734,0.339844 0.02734,0.339844 l 0.0098,0.0625 0.0332,0.05273 c 0,0 0.241242,0.429201 0.08008,0.734375 -0.07037,0.133237 -0.195686,0.212617 -0.341797,0.244141 -0.146111,0.03152 -0.300979,-5.17e-4 -0.378907,-0.05469 -0.343519,-0.238787 -0.536086,-0.626409 -0.580078,-1.115234 -0.04399,-0.488825 0.07442,-1.067381 0.351563,-1.613281 0.240782,-0.474307 0.736555,-0.87363 1.259765,-1.123047 0.174814,-0.08332 0.58327,-0.158755 0.923829,-0.19336 0.340558,-0.0346 0.61914,-0.04102 0.61914,-0.04102 l 0.265625,-0.0059 0.03711,-0.261718 c 0.126106,-0.865308 -0.0088,-1.537311 -0.314454,-2.054688 C 40.608436,20.517779 40.1518,20.168131 39.683594,19.875 l -0.002,-0.002 -0.0039,-0.002 c -0.02496,-0.0149 -0.02598,-0.01438 -0.0059,-0.002 l -0.01172,-0.0098 -0.01563,-0.0059 c -0.496236,-0.242744 -1.033778,-0.44523 -1.634765,-0.431641 z m 0.01367,0.623047 c 0.447379,-0.01012 0.883009,0.145517 1.337891,0.367187 0.427995,0.268951 0.788362,0.556686 1.015625,0.941407 0.194834,0.329822 0.238078,0.817088 0.199219,1.40039 -0.121352,0.0062 -0.149538,0.0029 -0.332031,0.02148 -0.368195,0.03741 -0.796221,0.0944 -1.13086,0.253906 -0.613716,0.292562 -1.219464,0.753543 -1.548828,1.402344 -0.324768,0.639712 -0.470608,1.324807 -0.414062,1.953125 0.05654,0.628318 0.328986,1.211131 0.845703,1.570312 0.253466,0.176195 0.566501,0.21875 0.865234,0.154297 0.298734,-0.06445 0.595856,-0.250401 0.761719,-0.564453 0.317545,-0.601295 0.01963,-1.12769 -0.06055,-1.259766 -0.002,-0.01221 -0.0156,-0.09435 -0.01563,-0.220703 -3e-5,-0.135333 0.02874,-0.291522 0.06445,-0.353516 0.120759,-0.209604 0.363683,-0.336687 0.658203,-0.371093 0.29452,-0.03441 0.620761,0.04145 0.808594,0.167968 0.408427,0.27509 0.609129,0.661849 0.675781,1.072266 0.06665,0.410418 -0.01833,0.839692 -0.175781,1.123047 -0.552998,0.995215 -1.713025,1.556367 -3.306641,0.953125 -0.821506,-0.310945 -1.445662,-1.161856 -1.753906,-2.054688 -0.0388,-0.112369 -0.11835,-0.222518 -0.203125,-0.285156 -0.07687,-0.0568 -0.137087,-0.07818 -0.1875,-0.09961 -0.0052,-0.0022 -0.01463,-0.0076 -0.01953,-0.0098 -0.04079,-0.02873 -0.07789,-0.0602 -0.152344,-0.08984 -0.098,-0.03903 -0.233293,-0.04994 -0.349609,-0.02344 -0.920929,0.209837 -1.972121,0.129004 -2.669922,-0.404297 -1.35404,-1.034691 -1.490491,-2.315392 -0.9375,-3.310547 5.59e-4,-0.001 0.0014,-0.0029 0.002,-0.0039 0.158176,-0.281978 0.475304,-0.578976 0.857422,-0.738281 0.383978,-0.160081 0.820216,-0.191745 1.269531,0.0098 0.206643,0.09268 0.443969,0.329395 0.570313,0.597657 0.126343,0.268261 0.145448,0.538724 0.03125,0.751953 -0.03361,0.06277 -0.150501,0.170865 -0.265625,0.242187 -0.108777,0.06739 -0.189567,0.0995 -0.199219,0.103516 -0.156473,0.002 -0.757776,0.02979 -1.09961,0.615234 -0.179081,0.306709 -0.179232,0.655656 -0.07617,0.94336 0.10306,0.287703 0.304404,0.532132 0.58789,0.654296 0.577917,0.249039 1.217855,0.172521 1.78125,-0.111328 0.563396,-0.283848 1.065823,-0.769167 1.4375,-1.382812 0.377129,-0.622687 0.448749,-1.381309 0.373047,-2.056641 -0.0413,-0.368405 -0.218151,-0.761342 -0.380859,-1.09375 -0.08062,-0.164698 -0.09934,-0.186684 -0.158203,-0.292969 0.475282,-0.341652 0.911387,-0.563593 1.294921,-0.572265 z m -10.33789,26.78125 c -0.0079,-5.92e-4 -0.109673,-0.0071 -0.19336,0.01953 -0.08369,0.02659 -0.152617,0.06891 -0.240234,0.130859 l -0.05664,0.04102 -1.035156,1.861328 -0.392578,0.707031 -0.0078,0.06055 v 0.0098 l -0.002,0.0078 c -0.0063,0.107102 -0.004,0.188333 0.01758,0.273438 0.02161,0.0851 0.07923,0.167321 0.08398,0.173828 l 0.04102,0.05469 1.445312,0.802734 0.03711,0.01172 c 0.0023,5.88e-4 0.05888,0.03045 0.173829,0.03516 0.114945,0.0047 0.269468,-0.06047 0.357421,-0.152344 l 0.02734,-0.0293 0.359375,-0.646484 1.300781,0.707031 0.0039,0.002 c 0.113804,0.05714 0.261693,0.06293 0.363281,0.03125 0.101588,-0.03168 0.165474,-0.07929 0.210937,-0.113281 l 0.05273,-0.04102 0.324219,-0.583984 0.0059,-0.06641 c 0.0049,-0.05659 0.01311,-0.135253 -0.01367,-0.238281 -0.02678,-0.103029 -0.110084,-0.22655 -0.21875,-0.292969 l -0.0039,-0.002 -1.28711,-0.732422 0.357422,-0.644531 0.0098,-0.03906 c 0.0315,-0.122966 0.0073,-0.287399 -0.05664,-0.382812 -0.0639,-0.09541 -0.120169,-0.126171 -0.123047,-0.128907 l -0.02734,-0.02734 -1.445313,-0.802735 z m 2.783203,0.103515 -0.01367,0.02539 -0.0059,-0.0059 c 0.02542,0.04757 0.01845,0.0062 0.01953,-0.01953 z m -2.822266,0.556641 1.09961,0.613281 -0.300782,0.539063 -0.0078,0.02148 c -0.022,0.0578 -0.06085,0.149333 -0.05078,0.285156 0.01007,0.135824 0.09599,0.285071 0.208984,0.375 l 0.01953,0.01563 1.292969,0.734375 -0.119141,0.214844 -1.30664,-0.708984 -0.02344,-0.0078 c -0.136057,-0.04845 -0.309046,-0.04367 -0.429687,0.01953 -0.120642,0.0632 -0.177397,0.146136 -0.214844,0.195312 l -0.01367,0.01758 L 27.5,50.341797 26.402344,49.730469 26.707031,49.181641 Z m -0.224609,4.908203 0.0098,0.002 -0.01758,0.03125 c 0.01871,-0.02098 0.07456,-0.03769 0.0078,-0.0332 z"
     id="path2" />
  <path
     d="m 18.55664,12.260852 v 1.9726 h 1.94777 v -0.620881 h 5.619746 l 1.757363,3.521767 c -0.552174,0.653697 -1.032437,1.37011 -1.428596,2.136996 l -1.85434,-3.135014 h -1.51848 v -0.657533 h -1.94777 v 1.972599 h 1.94777 v -0.606693 h 1.070272 l 1.969052,3.130285 c -0.270097,0.624007 -0.486962,1.276811 -0.643345,1.952499 h -2.20678 l -1.279596,-2.508326 -1.494833,-0.01773 V 18.73206 h -1.94777 v 1.971417 h 1.94777 v -0.671721 l 1.103377,0.02838 1.20863,2.472856 h 2.546187 c -0.112899,0.645368 -0.17148,1.309076 -0.17148,1.986787 0,0.247438 0.0082,0.493216 0.02365,0.736776 0.07162,1.126655 0.306013,2.209039 0.679997,3.22382 0.169399,-0.115288 0.347342,-0.21927 0.53218,-0.311032 -0.407378,-1.140449 -0.63034,-2.369127 -0.63034,-3.649459 0,-3.725653 1.878644,-7.01253 4.73983,-8.965477 -0.07035,-0.199199 -0.125889,-0.405224 -0.167933,-0.616151 -0.731547,0.480052 -1.404844,1.042079 -2.006887,1.672208 l -1.75618,-3.687293 h -6.091627 v -0.662262 h -1.947771 z m 6.648636,12.995909 h -2.398344 l -1.20863,2.471674 -1.103376,0.02957 v -0.672903 h -1.947771 v 1.971417 h 1.947771 v -0.668174 l 1.494832,-0.01892 1.279597,-2.507143 h 1.935947 V 25.256769 Z M 19.18564,12.903252 h 0.748598 v 0.748599 H 19.18564 Z m 2.575745,3.217776 h 0.748599 v 0.748599 h -0.748599 z m -2.585204,3.252196 h 0.748599 v 0.748599 h -0.748599 z m 33.396881,0.898781 v 0.669357 l -1.49365,0.01773 -1.280779,2.508326 h -1.759727 c -0.05366,-0.58683 -0.152261,-1.160365 -0.290906,-1.718346 -0.18421,0.08347 -0.375981,0.153248 -0.572379,0.211687 0.198592,0.820826 0.30512,1.677332 0.30512,2.559193 0,3.845462 -2.000319,7.223773 -5.017809,9.14992 0.08607,0.185329 0.159363,0.378004 0.219969,0.575926 0.727579,-0.453437 1.400614,-0.985905 2.006913,-1.585898 l 1.7834,3.746409 h 6.090576 v 0.66108 h 1.948953 V 35.095977 H 52.56379 v 0.619699 h -5.618695 l -1.77628,-3.559602 c 0.562474,-0.628132 1.055874,-1.318744 1.470004,-2.060118 l 1.830694,3.096128 h 1.519662 v 0.657534 h 1.94777 v -1.971417 h -1.94777 v 0.606692 h -1.071454 l -1.928853,-3.067752 c 0.303911,-0.641348 0.550545,-1.31504 0.732046,-2.015189 h 2.077853 l 1.280779,2.507144 1.49365,0.01892 v 0.669356 h 1.947771 v -1.971417 h -1.947771 v 0.671721 l -1.103376,-0.02957 -1.208631,-2.471674 h -2.40189 c 0.148446,-0.735856 0.227065,-1.496882 0.227065,-2.276537 0,-0.14972 -0.0038,-0.298735 -0.0095,-0.447026 h 2.184289 l 1.20863,-2.472856 1.103377,-0.02838 v 0.672903 h 1.94777 v -1.972599 h -1.94777 z m 0.570015,0.581838 h 0.748599 v 0.748599 H 53.143077 Z M 19.17605,27.72607 h 0.748598 v 0.748599 H 19.17605 Z m 33.967027,1.481828 h 0.748599 v 0.748598 h -0.748599 z m -2.584022,3.252195 h 0.748599 v 0.748599 H 50.559055 Z M 53.1348,35.67787 h 0.747417 v 0.748599 H 53.1348 Z"
     fill="#ffffff"
     id="path4"
     style="stroke-width:0.26274;fill:#999ea3;fill-opacity:1" />
</svg>
