<?xml version="1.0" encoding="UTF-8" standalone="no"?>
<svg
   width="67.733mm"
   height="67.733mm"
   version="1.1"
   viewBox="0 0 67.733 67.733"
   id="svg10"
   sodipodi:docname="syp.svg"
   inkscape:version="1.1 (c68e22c387, 2021-05-23)"
   xmlns:inkscape="http://www.inkscape.org/namespaces/inkscape"
   xmlns:sodipodi="http://sodipodi.sourceforge.net/DTD/sodipodi-0.dtd"
   xmlns="http://www.w3.org/2000/svg"
   xmlns:svg="http://www.w3.org/2000/svg">
  <defs
     id="defs14" />
  <sodipodi:namedview
     id="namedview12"
     pagecolor="#505050"
     bordercolor="#eeeeee"
     borderopacity="1"
     inkscape:pageshadow="0"
     inkscape:pageopacity="0"
     inkscape:pagecheckerboard="0"
     inkscape:document-units="mm"
     showgrid="false"
     inkscape:zoom="3.0429836"
     inkscape:cx="127.99937"
     inkscape:cy="127.99937"
     inkscape:window-width="1920"
     inkscape:window-height="1013"
     inkscape:window-x="-9"
     inkscape:window-y="-9"
     inkscape:window-maximized="1"
     inkscape:current-layer="svg10" />
  <path
     style="color:#000000;fill:#999ea3;-inkscape-stroke:none;fill-opacity:1"
     d="m 33.308594,25.691406 c -9.46452,-0.02077 -17.260582,7.347052 -17.660156,7.728516 l -0.234375,0.111328 c 0,0 0.236528,0.701518 0.279296,0.818359 l -0.152343,-0.0625 c 0.165218,0.158771 8.130945,7.846535 17.773437,7.822266 9.480905,0.106601 17.020685,-6.946383 17.757813,-7.654297 h 0.05859 l 0.148438,-0.128906 c 0,0 0.01174,-0.01043 0.0293,-0.02734 0.0088,-0.0085 0.01792,-0.01614 0.04102,-0.04297 0.01154,-0.01341 0.05618,-0.07929 0.05664,-0.08008 1.42e-4,-2.41e-4 0.01993,-0.04826 0.03711,-0.0918 0.0024,-0.0042 0.01172,-0.02148 0.01172,-0.02148 10e-7,-4e-6 0.0016,-0.01134 0.002,-0.01367 0.0024,-0.0062 0.0098,-0.02339 0.0098,-0.02344 7e-6,-3.1e-5 0.0014,-0.02822 0.002,-0.04297 0.005,-0.0318 0.0098,-0.06443 0.0098,-0.06445 0,-4.3e-5 -0.0025,-0.02988 -0.0059,-0.05664 2.84e-4,-0.0084 3e-6,-0.03123 0,-0.03125 -10e-7,-9e-6 -0.0056,-0.01806 -0.0078,-0.02539 -0.0015,-0.01163 -0.0039,-0.03317 -0.0039,-0.0332 -6.9e-5,-2.55e-4 -0.0193,-0.05043 -0.03125,-0.08008 -8.57e-4,-0.0021 -0.0012,-0.004 -0.002,-0.0059 0,-10e-7 -0.0019,-0.0019 -0.002,-0.002 -0.0015,-0.0035 -0.0029,-0.0097 -0.0039,-0.01172 -0.01777,-0.03531 -0.02455,-0.04449 -0.03125,-0.05469 -0.01339,-0.02039 -0.01932,-0.02898 -0.02539,-0.03711 -0.01214,-0.01626 -0.02148,-0.02734 -0.02148,-0.02734 L 51.185547,33.355469 H 51.074219 C 50.366883,32.676202 43.073905,25.894621 33.835937,25.734375 v -0.04297 h -0.521484 c -0.002,2.3e-5 -0.0039,-2.3e-5 -0.0059,0 z m 0.002,1.044922 h 0.002 0.0078 c 8.576521,-0.09912 15.634106,6.099483 16.791016,7.167969 -1.151257,1.061935 -8.215782,7.257379 -16.791016,7.158203 h -0.0039 -0.0039 c -8.394311,0.02113 -15.490004,-6.138524 -16.619141,-7.164063 1.150227,-1.046128 8.218626,-7.182322 16.617188,-7.162109 z"
     id="path2" />
  <path
     style="color:#000000;fill:#999ea3;-inkscape-stroke:none;fill-opacity:1"
     d="m 33.396484,27.535156 c -0.468096,0 -0.923653,0.05289 -1.361328,0.148438 l -0.111328,0.02344 -0.0059,0.0098 -0.169922,0.04492 c -2.079972,0.55905 -3.728923,2.143748 -4.386719,4.18164 l -0.01758,-0.0078 -0.08398,0.314453 c -0.139311,0.522332 -0.21875,1.069946 -0.21875,1.638672 0,1.532718 0.585451,2.911648 1.490234,4.009765 l -0.107422,-0.0039 0.275391,0.273438 0.0078,0.0098 0.07422,0.08008 h 0.0078 l 0.128907,0.128907 c 1.148828,1.146162 2.727652,1.855469 4.478515,1.855468 0.382797,0 0.74786,-0.06351 1.111328,-0.128906 l -0.04102,0.07227 0.488281,-0.136719 0.158203,-0.04297 c 1.973109,-0.551572 3.500621,-2.06678 4.199219,-3.974609 l 0.06445,0.119141 0.09766,-0.38086 c 0.0016,-0.0052 0.0062,-0.0085 0.0078,-0.01367 l 0.01172,-0.03906 v -0.02734 l 0.05664,-0.222656 c 0.128903,-0.502837 0.208985,-1.028583 0.208985,-1.578125 0,-1.549109 -0.605548,-2.935423 -1.527344,-4.03711 l 0.130859,0.0039 -0.5,-0.494141 c -1.147926,-1.132772 -2.728949,-1.826172 -4.466797,-1.826172 z m 0,0.550781 c 1.341886,0 2.521202,0.523607 3.503907,1.285157 -1.0579,0.127944 -2.474006,0.611188 -4.863282,2.048828 l -0.05859,0.03711 -0.189454,0.320313 -0.308593,0.183593 0.203125,-0.002 -0.302735,0.511719 c 0.01312,-1.294784 0.132245,-2.983528 0.91211,-4.263672 0.358865,-0.06981 0.725393,-0.121094 1.103515,-0.121094 z m -2.109375,0.548829 c -0.431667,0.924137 -0.805938,2.231991 -0.720703,5.003906 l -0.08398,0.08008 0.07617,0.146484 v 0.03125 l 0.25,0.40625 0.0039,0.22461 0.06445,-0.109375 0.291016,0.507812 c -1.112475,-0.657946 -2.512471,-1.592518 -3.222657,-2.908203 0.546274,-1.584554 1.797208,-2.756261 3.341797,-3.382812 z m 6.226563,1.388671 c 0.062,-0.0011 0.12491,0.0016 0.1875,0.0039 0.923866,1.028721 1.507812,2.371486 1.507812,3.861328 0,0.269837 -0.06511,0.523004 -0.103515,0.783203 -0.612669,-0.847856 -1.680225,-1.820577 -4.181641,-3.201172 l -0.05469,-0.101562 -0.02148,0.05078 c -0.0033,-0.0018 -0.0045,-0.0021 -0.0078,-0.0039 l -0.06445,-0.03516 -1.166016,0.0098 c 1.093505,-0.616004 2.514451,-1.340447 3.904297,-1.367188 z m -2.890625,1.908204 -0.07813,0.183593 0.146484,0.08398 0.96875,1.789062 -0.117187,0.08008 -0.03125,0.05469 -0.113282,0.199219 -0.857421,1.486328 -2.238282,-0.01172 -0.978515,-1.707031 -0.128907,-0.212891 1.13086,-1.923828 z m 1.005859,0.841796 c 1.119514,0.64736 2.554661,1.572289 3.261719,2.925782 -0.524999,1.582495 -1.76514,2.759459 -3.289063,3.408203 0.418816,-0.95435 0.710752,-2.340941 0.615235,-5.189453 l -0.002,-0.06445 z m -7.914062,0.195313 c 0.618792,0.883307 1.6362,1.890153 4.294922,3.345703 l 0.06055,0.03516 0.392579,0.002 0.232421,0.132813 -0.07617,-0.132813 0.589843,0.0039 c -1.13672,0.640718 -2.663535,1.396419 -4.171875,1.328125 -0.887286,-1.019726 -1.445312,-2.336493 -1.445312,-3.794922 0,-0.31834 0.07243,-0.616012 0.123047,-0.919922 z m 7.730468,2.375 c -0.0069,1.307588 -0.115464,2.969801 -0.863281,4.208984 -0.384628,0.08051 -0.778369,0.138672 -1.185547,0.138672 -1.37642,0 -2.579871,-0.546184 -3.572265,-1.345703 1.05576,-0.09426 2.417218,-0.472058 4.9375,-1.994141 1.25e-4,-3.1e-5 0.01,-0.0043 0.01367,-0.0059 0.01907,-0.0082 0.06974,-0.03088 0.07031,-0.03125 1.25e-4,-8.1e-5 0.0059,-0.0044 0.0078,-0.0059 l 0.04883,-0.02344 0.199218,-0.34375 0.220704,-0.128906 h -0.146485 z"
     id="path4" />
</svg>
