<svg width="67.971mm" height="67.733mm" version="1.1" viewBox="0 0 67.971 67.733" xmlns="http://www.w3.org/2000/svg">
 <path d="m23.424 20.621a17.679 17.679 0 0 0-7.0021 14.063 17.679 17.679 0 0 0 7.0021 14.063h21.367a17.679 17.679 0 0 0 6.9897-14.063 17.679 17.679 0 0 0-6.9897-14.063zm19.588 0.85245c5.0733 3.6472 7.1058 8.2062 7.1111 13.211-0.0057 5.0043-2.3484 9.7188-6.3343 12.745h-19.364c-3.9901-3.0236-6.3377-7.7384-6.3457-12.745 0.0079-5.0064 2.1225-10.187 6.8894-13.133z" fill="#e2f54e" stroke-width=".26458"/>
 <rect x="22.135" y="18.988" width="23.936" height="1.8588" ry=".79041" fill="#e2f54e" stroke-width=".26458"/>
 <g transform="matrix(.26458 0 0 .26458 -135.23 -210.7)" fill="none" stroke="#e2f54e">
  <path d="m703.44 914.18h-126.13" stroke-width="5.1138"/>
  <g stroke-linecap="round">
   <path d="m604.3 938.33v10.618h5.4294v29.82h26.28v-29.82h5.4308v-10.618h-5.6199v4.986h-5.0685v-4.986h-5.5746v4.986h-5.0672v-4.986h-5.5746v4.986h-5.0685v-4.986z" stroke-width="2.7274"/>
   <path d="m649 974.56c0 2.435-3.6904 4.4089-8.2428 4.4089-1.3146 0-3.5144 0.10649-4.6171-0.1863l-0.17019-7.8121c1.3495-0.51585 3.0021-0.81939 4.7873-0.81939 4.5524 0 8.2428 1.9739 8.2428 4.4089z" stroke-width="2.7274"/>
   <path d="m676.46 974.01c0 3.6453-5.0247 4.2817-11.223 4.2817-6.1983-1e-5 -11.223-0.63637-11.223-4.2817s5.0247-6.6004 11.223-6.6004 11.223 2.9551 11.223 6.6004z" stroke-width="2.3594"/>
  </g>
  <g stroke-width="2.2501">
   <path d="m605.68 978.97-2.3003-15.335"/>
   <path d="m603.92 964.88-3.9269-3.0006"/>
   <path d="m603.25 964.88 2.4359-4.085"/>
  </g>
 </g>
</svg>
