<svg width="67.971mm" height="67.733mm" version="1.1" viewBox="0 0 67.971 67.733" xmlns="http://www.w3.org/2000/svg">
 <path d="m50.455 31.525c-1.4511-0.30345-5.1479-1.8951-8.0133-0.72162-2.8657 1.1735-5.7988 1.0232-8.6221 0-2.8233-1.0232-5.6964-0.99937-8.3176 0-2.6213 0.9994-6.2991 0.91566-8.0583-0.72162" fill="none" stroke="#e2f54e" stroke-width="1.353"/>
 <g transform="matrix(.26458 0 0 .26458 -135.47 -142.97)" fill="#e2f54e">
  <circle cx="688.31" cy="688.52" r="2.0045"/>
  <circle cx="660.66" cy="676.19" r="3.3682"/>
  <circle cx="669.2" cy="691.31" r="1.3227"/>
  <circle cx="639.88" cy="671.33" r="1.3227"/>
  <circle cx="608.82" cy="665.97" r="2.6863"/>
  <circle cx="590.5" cy="675.6" r="2.0045"/>
  <circle cx="652.05" cy="697.37" r="1.3227"/>
  <circle cx="683.66" cy="668.93" r="1.3227"/>
  <circle cx="596.5" cy="696.82" r="1.3227"/>
  <circle cx="677.49" cy="702.3" r="1.3227"/>
  <path d="m599.64 618.29a66.82 66.82 0 0 0-26.465 53.153 66.82 66.82 0 0 0 26.465 53.153h80.758a66.82 66.82 0 0 0 26.418-53.153 66.82 66.82 0 0 0-26.418-53.153zm74.035 3.2219c19.175 13.785 26.856 31.016 26.877 49.931-0.0218 18.914-8.876 36.733-23.941 48.17h-73.187c-15.081-11.428-23.954-29.248-23.984-48.17 0.03-18.922 8.022-38.503 26.038-49.637z"/>
  <rect x="594.77" y="612.12" width="90.469" height="7.0255" ry="2.9874"/>
 </g>
 <g transform="matrix(.26458 0 0 .26458 -135.47 -142.97)" fill="none" stroke="#e2f54e">
  <g stroke-linecap="round">
   <path d="m604.3 682.33v10.618h5.4294v29.82h26.28v-29.82h5.4307v-10.618h-5.6199v4.986h-5.0685v-4.986h-5.5745v4.986h-5.0672v-4.986h-5.5746v4.986h-5.0685v-4.986z" stroke-width="2.7274"/>
   <path d="m649 718.56c0 2.435-3.6904 4.4089-8.2428 4.4089-1.3146 0-3.5143 0.10648-4.6171-0.1863l-0.17019-7.8122c1.3495-0.51585 3.0021-0.81939 4.7873-0.81939 4.5524 0 8.2428 1.9739 8.2428 4.4089z" stroke-width="2.7274"/>
   <path d="m676.46 718.01c0 3.6453-5.0247 4.2817-11.223 4.2817s-11.223-0.63636-11.223-4.2817c0-3.6453 5.0247-6.6004 11.223-6.6004s11.223 2.9551 11.223 6.6004z" stroke-width="2.3594"/>
  </g>
  <g stroke-width="2.2501">
   <path d="m605.68 722.97-2.3002-15.335"/>
   <path d="m603.92 708.88-3.9268-3.0006"/>
   <path d="m603.25 708.88 2.4358-4.085"/>
  </g>
 </g>
</svg>
