<?xml version="1.0" encoding="UTF-8" standalone="no"?>
<svg
   width="67.733mm"
   height="67.733mm"
   version="1.1"
   viewBox="0 0 67.733 67.733"
   id="svg18"
   sodipodi:docname="charger_on.svg"
   inkscape:version="1.1.1 (3bf5ae0d25, 2021-09-20)"
   xmlns:inkscape="http://www.inkscape.org/namespaces/inkscape"
   xmlns:sodipodi="http://sodipodi.sourceforge.net/DTD/sodipodi-0.dtd"
   xmlns="http://www.w3.org/2000/svg"
   xmlns:svg="http://www.w3.org/2000/svg">
  <defs
     id="defs22" />
  <sodipodi:namedview
     id="namedview20"
     pagecolor="#505050"
     bordercolor="#eeeeee"
     borderopacity="1"
     inkscape:pageshadow="0"
     inkscape:pageopacity="0"
     inkscape:pagecheckerboard="0"
     inkscape:document-units="mm"
     showgrid="false"
     inkscape:snap-page="true"
     inkscape:zoom="2.2760111"
     inkscape:cx="187.82861"
     inkscape:cy="157.07305"
     inkscape:window-width="1920"
     inkscape:window-height="1013"
     inkscape:window-x="-9"
     inkscape:window-y="1341"
     inkscape:window-maximized="1"
     inkscape:current-layer="svg18" />
  <g
     id="g5005"
     transform="matrix(0.81267331,0,0,0.81267331,-45.06722,2.8838257)">
    <path
       id="rect951"
       style="opacity:1;fill:#e2f54e;fill-opacity:1;stroke-linejoin:round"
       d="m 78.196087,28.086189 6.604875,10.427638 H 80.171946 C 80.85128,52.224565 96.865335,63.21357 110.48597,48.851703 l 2.11077,3.468723 C 101.44455,65.461603 77.208287,59.868817 76.472935,38.513827 h -4.787691 z"
       sodipodi:nodetypes="cccccccc" />
    <path
       id="path2535"
       style="opacity:1;fill:#e2f54e;fill-opacity:1;stroke-linejoin:round"
       d="m 116.06087,48.162595 -6.60488,-10.427639 4.62902,-10e-7 C 113.40567,24.024217 97.391615,13.035212 83.770985,27.397078 L 81.660208,23.928357 C 92.812415,10.787179 117.04867,16.379965 117.78402,37.734955 l 4.78769,10e-7 z"
       sodipodi:nodetypes="cccccccc" />
    <path
       id="rect2559"
       style="opacity:1;fill:#e2f54e;fill-opacity:1;stroke-linejoin:round"
       d="m 104.719,25.550633 -4.932015,10.973731 4.932015,0.0411 -15.124845,14.467246 4.76761,-10.768235 -4.76761,-0.246601 z"
       sodipodi:nodetypes="ccccccc" />
  </g>
</svg>
