<svg width="67.733mm" height="67.733mm" version="1.1" viewBox="0 0 67.733 67.733" xmlns="http://www.w3.org/2000/svg">
 <g transform="matrix(.26458 0 0 .26458 -67.733 -142.97)" fill="#e2f54e" stroke-opacity="0">
  <path d="m387.22 615.07a44.933 44.933 0 0 0-44.934 44.936 44.933 44.933 0 0 0 22.637 38.891v12.73c0 1.7621 1.4195 3.1797 3.1816 3.1797h38.367c1.7621 0 3.1797-1.4176 3.1797-3.1797v-12.746a44.933 44.933 0 0 0 22.5-38.875 44.933 44.933 0 0 0-44.932-44.936zm0 8.5742a36.359 36.359 0 0 1 36.357 36.361 36.359 36.359 0 0 1-22.453 33.521v12.75h-27.672v-12.682h-0.0879a36.359 36.359 0 0 1-22.504-33.59 36.359 36.359 0 0 1 36.359-36.361zm-19.115 97.654c-1.7621 0-3.1816 1.4195-3.1816 3.1816v2.166c0 1.7621 1.4195 3.1816 3.1816 3.1816h38.367c1.7621 0 3.1797-1.4195 3.1797-3.1816v-2.166c0-1.7621-1.4176-3.1816-3.1797-3.1816zm7.5527 15.021c-1.7621 0-3.1797 1.4176-3.1797 3.1797v2.168c0 1.7621 1.4176 3.1816 3.1797 3.1816h23.26c1.7621 0 3.1816-1.4195 3.1816-3.1816v-2.168c0-1.7621-1.4195-3.1797-3.1816-3.1797z"/>
  <path d="m317.35 636.23c-1.7021-0.45607-3.4406 0.54768-3.8967 2.2498l-0.56061 2.0922c-0.45607 1.7021 0.54768 3.4406 2.2498 3.8967l24.08 6.4523 2.2076-8.2387z"/>
  <path d="m338.66 604.12c-1.246-1.246-3.2535-1.246-4.4995 1e-5l-1.5316 1.5316c-1.246 1.246-1.246 3.2535 0 4.4995l17.628 17.628 6.0311-6.0311z"/>
  <path d="m372.04 587.4c-0.45606-1.7021-2.1946-2.7058-3.8967-2.2498l-2.0922 0.56061c-1.7021 0.45606-2.7058 2.1946-2.2498 3.8967l6.4523 24.08 8.2387-2.2075z"/>
  <path d="m458.32 636.23c1.7021-0.45607 3.4406 0.54768 3.8967 2.2498l0.56061 2.0922c0.45607 1.7021-0.54768 3.4406-2.2498 3.8967l-24.08 6.4523-2.2076-8.2387z"/>
  <path d="m437 604.12c1.246-1.246 3.2535-1.246 4.4995 1e-5l1.5316 1.5316c1.246 1.246 1.246 3.2535 0 4.4995l-17.628 17.628-6.0311-6.0311z"/>
  <path d="m403.62 587.4c0.45606-1.7021 2.1946-2.7058 3.8967-2.2498l2.0922 0.56061c1.7021 0.45606 2.7058 2.1946 2.2498 3.8967l-6.4523 24.08-8.2387-2.2075z"/>
 </g>
</svg>
