<svg width="67.971mm" height="67.733mm" version="1.1" viewBox="0 0 67.971 67.733" xmlns="http://www.w3.org/2000/svg">
 <path d="m34.72 19.77a11.889 11.889 0 0 0-11.889 11.889 11.889 11.889 0 0 0 5.9893 10.29v3.3683c0 0.46623 0.37558 0.84129 0.84181 0.84129h10.151c0.46623 0 0.8413-0.37506 0.8413-0.84129v-3.3724a11.889 11.889 0 0 0 5.9531-10.286 11.889 11.889 0 0 0-11.888-11.889zm0 2.2686a9.6199 9.6199 0 0 1 9.6196 9.6206 9.6199 9.6199 0 0 1-5.9407 8.8692v3.3734h-7.3215v-3.3554h-0.0233a9.6199 9.6199 0 0 1-5.9542-8.8873 9.6199 9.6199 0 0 1 9.6201-9.6206zm-5.0576 25.838c-0.46623 0-0.84181 0.37558-0.84181 0.84181v0.57309c0 0.46623 0.37558 0.84181 0.84181 0.84181h10.151c0.46623 0 0.8413-0.37558 0.8413-0.84181v-0.57309c0-0.46623-0.37507-0.84181-0.8413-0.84181zm1.9983 3.9744c-0.46623 0-0.84129 0.37506-0.84129 0.84129v0.57361c0 0.46623 0.37506 0.84179 0.84129 0.84179h6.1542c0.46623 0 0.84181-0.37556 0.84181-0.84179v-0.57361c0-0.46623-0.37558-0.84129-0.84181-0.84129z" fill="#e2f54e"/>
</svg>
