<svg width="67.971mm" height="67.733mm" version="1.1" viewBox="0 0 67.971 67.733" xmlns="http://www.w3.org/2000/svg">
 <g transform="translate(-150.05 -127.64)" fill="#e2f54e">
  <path d="m177.44 146.51c-1.2381 0-2.2348 0.99674-2.2348 2.2348v25.508c0 1.2381 0.99675 2.2348 2.2348 2.2348h13.407c1.2381 0 2.2348-0.99675 2.2348-2.2348v-25.508c0-1.2381-0.99675-2.2348-2.2348-2.2348zm1.0397 0.9397h11.328c1.1605 0 2.0946 0.9343 2.0946 2.0948v23.909c0 1.1605-0.93417 2.0948-2.0946 2.0948h-11.328c-1.1605 0-2.0946-0.9343-2.0946-2.0948v-23.909c0-1.1605 0.93416-2.0948 2.0946-2.0948z"/>
  <path d="m184.48 162.71a4.618 4.618 0 0 0-4.6179 4.6179 4.618 4.618 0 0 0 4.6179 4.618 4.618 4.618 0 0 0 4.6179-4.618 4.618 4.618 0 0 0-4.6179-4.6179zm0 0.74919a3.8688 3.8688 0 0 1 3.8687 3.8687 3.8688 3.8688 0 0 1-3.8687 3.8688 3.8688 3.8688 0 0 1-3.8687-3.8688 3.8688 3.8688 0 0 1 3.8687-3.8687z"/>
  <ellipse cx="184.48" cy="167.33" rx="1.8775" ry="1.8775"/>
  <path d="m184.48 150.62a3.5007 3.5007 0 0 0-3.5006 3.5007 3.5007 3.5007 0 0 0 3.5006 3.5008 3.5007 3.5007 0 0 0 3.5007-3.5008 3.5007 3.5007 0 0 0-3.5007-3.5007zm0 0.56793a2.9328 2.9328 0 0 1 2.9327 2.9327 2.9328 2.9328 0 0 1-2.9327 2.9328 2.9328 2.9328 0 0 1-2.9327-2.9328 2.9328 2.9328 0 0 1 2.9327-2.9327z"/>
  <ellipse cx="184.48" cy="154.12" rx="1.4232" ry="1.4232"/>
 </g>
</svg>
