<svg width="67.971mm" height="67.733mm" version="1.1" viewBox="0 0 67.971 67.733" xmlns="http://www.w3.org/2000/svg">
 <g transform="matrix(.26458 0 0 .26458 -202.96 -142.97)" fill="#e2f54e">
  <path d="m869.73 611.71c-4.6794 0-8.4466 3.7672-8.4466 8.4466v96.41c0 4.6794 3.7672 8.4466 8.4466 8.4466h50.672c4.6794 0 8.4466-3.7672 8.4466-8.4466v-96.41c0-4.6794-3.7672-8.4466-8.4466-8.4466zm3.9295 3.5516h42.813c4.386 0 7.9167 3.5312 7.9167 7.9172v90.365c0 4.386-3.5307 7.9172-7.9167 7.9172h-42.813c-4.386 0-7.9167-3.5312-7.9167-7.9172v-90.365c0-4.386 3.5307-7.9172 7.9167-7.9172z"/>
  <path d="m896.35 672.94a17.454 17.454 0 0 0-17.454 17.454 17.454 17.454 0 0 0 17.454 17.454 17.454 17.454 0 0 0 17.454-17.454 17.454 17.454 0 0 0-17.454-17.454zm0 2.8316a14.622 14.622 0 0 1 14.622 14.622 14.622 14.622 0 0 1-14.622 14.622 14.622 14.622 0 0 1-14.622-14.622 14.622 14.622 0 0 1 14.622-14.622z"/>
  <circle cx="896.35" cy="690.39" r="7.096"/>
  <path d="m896.35 627.21a13.231 13.231 0 0 0-13.231 13.231 13.231 13.231 0 0 0 13.231 13.231 13.231 13.231 0 0 0 13.231-13.231 13.231 13.231 0 0 0-13.231-13.231zm0 2.1465a11.084 11.084 0 0 1 11.084 11.084 11.084 11.084 0 0 1-11.084 11.085 11.084 11.084 0 0 1-11.084-11.085 11.084 11.084 0 0 1 11.084-11.084z"/>
  <circle cx="896.35" cy="640.44" r="5.3792"/>
  <path d="m949.69 634.32c14.992 17.734 14.282 46.758 0 61.701-1.744 0-4.0802-1.674-3.148-3.148 10.753-17.002 13.792-35.056 0-55.405-0.97848-1.4437 1.404-3.148 3.148-3.148z"/>
  <path d="m963.54 623.77c17.464 14.52 22.296 62.354 0 81.76-1.744 0-4.3178-1.8546-3.148-3.148 14.206-15.707 19.2-53.086 0-75.463-1.1356-1.3236 1.404-3.148 3.148-3.148z"/>
  <path d="m842.31 634.32c-14.992 17.734-14.282 46.758 0 61.701 1.744 0 4.0802-1.674 3.148-3.148-10.753-17.002-13.792-35.056 0-55.405 0.97848-1.4437-1.404-3.148-3.148-3.148z"/>
  <path d="m828.46 623.77c-17.464 14.52-22.296 62.354 0 81.76 1.744 0 4.3178-1.8546 3.148-3.148-14.206-15.707-19.2-53.086 0-75.463 1.1356-1.3236-1.404-3.148-3.148-3.148z"/>
 </g>
</svg>
